<svg xmlns="http://www.w3.org/2000/svg" xmlns:xlink="http://www.w3.org/1999/xlink" viewBox="0 0 1200 1200"><defs><style>.cls-1{isolation:isolate;}.cls-2{fill:#ebe9f0;}.cls-3{fill:#1a4b96;}.cls-4{fill:#f184b4;}.cls-5{fill:#f184b5;}.cls-6{fill:#ecec9d;}.cls-7{fill:#e2e7f7;stroke:#5a77bf;}.cls-20,.cls-21,.cls-22,.cls-23,.cls-24,.cls-7,.cls-8{stroke-miterlimit:10;}.cls-7,.cls-8{stroke-width:0.28px;}.cls-19,.cls-20,.cls-8{fill:#fffaeb;}.cls-20,.cls-8{stroke:#af9b69;}.cls-9{fill:#8b9ec6;opacity:0.45;}.cls-10{fill:#80bfa3;}.cls-11{fill:#55a584;}.cls-12{fill:#388460;}.cls-13{fill:#257a53;}.cls-14{fill:#fff;}.cls-15{fill:#fdd24c;}.cls-16{fill:#c49716;}.cls-17{fill:#a57d0c;}.cls-18{fill:#8c6203;}.cls-20{stroke-width:3.1px;}.cls-21,.cls-23,.cls-24{fill:#f3fcff;stroke:#81c4db;}.cls-21{stroke-width:0.54px;}.cls-22{fill:#99d9f6;stroke:#3d9fc1;}.cls-22,.cls-24{stroke-width:0.52px;}.cls-23,.cls-24{stroke-linecap:round;}.cls-23{stroke-width:0.52px;}.cls-25{fill:#f485b7;}.cls-26{fill:#0d096c;}.cls-27{fill:#18161f;}.cls-28{fill:#e17ba9;}.cls-29{fill:#0b0759;}.cls-30{fill:#262432;}.cls-31{mix-blend-mode:soft-light;}.cls-32{fill:url(#linear-gradient);}.cls-33{fill:url(#linear-gradient-2);}.cls-34{fill:none;}</style><linearGradient id="linear-gradient" x1="536.61" y1="665.38" x2="1058.54" y2="665.38" gradientUnits="userSpaceOnUse"><stop offset="0" stop-color="#d979d2"/><stop offset="1" stop-color="#50bf80"/></linearGradient><linearGradient id="linear-gradient-2" x1="141.32" y1="619.91" x2="521.13" y2="619.91" xlink:href="#linear-gradient"/></defs><g class="cls-1"><g id="Layer_1" data-name="Layer 1"><path class="cls-2" d="M1071.07,789.69c22.79-57.61,9-132.7-43.4-165.71-22-13.84-49.93-20.53-64.83-41.82-33.06-52.56,30.69-147.57,22.66-216C989,250,948,198.31,806.09,188.13s-233.52,74.94-265.74,93.75C469.74,323.1,377.87,279.2,299,300.64,228.83,319.7,179.51,396.19,191.1,468c9.45,58.49,53.5,112.47,41.85,170.56-30.9,106-199.69,160.38-60,285.72,73,51.6,168,33.79,252.07,38.61,60.37,3.67,119.25,19.28,178.35,32.12,120.09,32,253.31,27.64,339.43-71.71C990.56,879.05,1045.38,854.63,1071.07,789.69Z"/><path class="cls-3" d="M315,368.82l18.49-1.42a22.23,22.23,0,0,1,23.76,20.21l1.62,18.5a21.65,21.65,0,0,1-19.94,23.55l-18.49,1.41a22.23,22.23,0,0,1-23.77-20.2L295,392.37A21.64,21.64,0,0,1,315,368.82"/><path class="cls-4" d="M307.64,467.58c11,.55,21.92,1.36,32.87,2.19-.86-17.21-1.44-34.43-2.26-51.64q-12.92-.36-25.83-.76-2.13,25.14-4.78,50.21"/><path class="cls-4" d="M352.38,436.23l-5.67.43c-12.79,1-36.38-7.66-37.5-20.46l-1-12a22.94,22.94,0,0,1,21.13-24.95l5.67-.43a23.55,23.55,0,0,1,25.18,21.4l1.05,12c1.12,12.8,4,23-8.81,24"/><path class="cls-3" d="M333.32,396.37l20.3,3.35a12,12,0,0,0,13.86-10,12.31,12.31,0,0,0-10.17-14L337,372.38a12,12,0,0,0-13.86,10,12.31,12.31,0,0,0,10.17,14"/><path class="cls-3" d="M316.13,401.8l5.82-2.29a12.06,12.06,0,0,0,6.71-15.76,12.28,12.28,0,0,0-15.83-6.88L307,379.16a12,12,0,0,0-6.7,15.76,12.26,12.26,0,0,0,15.82,6.88"/><path class="cls-4" d="M316.6,412.14c.6,6.61-4.09,11.18-10.2,11.21A12.33,12.33,0,0,1,294,412.29c-.62-6.6,4.1-11.18,10.21-11.22a12.29,12.29,0,0,1,12.41,11.07"/><path class="cls-4" d="M491.42,460.59l3.47,8.54,3.47,8.54-87,20.79L378,496.4c-9.73-4.83-17.28-9.52-15.69-19.26A16.65,16.65,0,0,1,383.2,463.9L423.81,472l67.61-11.37Z"/><path class="cls-5" d="M515,456.79a9.31,9.31,0,0,1-3.36,12.34L500,476.18a9.3,9.3,0,0,1-13-3.55l-.7-1.31a9.29,9.29,0,0,1,4.26-12.81l12.29-5.75a9.3,9.3,0,0,1,12.13,4"/><path class="cls-6" d="M359.64,448.13l38.66,14.15-13.44,35.66c-.72,1.92-3.16,2.8-5.45,2l-33.63-13.67C338,482,333.1,475.79,336,468L340.19,457a15.2,15.2,0,0,1,19.45-8.84"/><path class="cls-6" d="M280.34,567h91.54l2.36-96.17c-.9-5.5-2.44-24.6-18.85-24.16l-68.21,3.07c-6.85.45-14.77,10.12-14.44,18.79l7.6,98.47Z"/><path class="cls-4" d="M238.11,514.8l30-13.78c8.66-5,11.27-16.13,5.63-24s-17.32-9.08-24.94-2.44l-24.2,14.1a15.07,15.07,0,0,0-6.89,17.87c2.85,8.17,12.3,12,20.44,8.24"/><path class="cls-6" d="M302,486.88l-37.48,21L246.05,475.4c-1-1.75-.05-4.14,2.1-5.35l33.58-18.85c6.68-3.75,17.4-.15,24.31,10.77s2.59,21.16-4.09,24.91"/><path class="cls-4" d="M233.38,491.72l-51.94-44-8.84,5-8.84,5,55,55a12.57,12.57,0,0,0,18.39-2.74,13.43,13.43,0,0,0-3.72-18.33"/><path class="cls-4" d="M146.72,439.19a11.07,11.07,0,0,0,4.79,14.27l14,7.79a10.68,10.68,0,0,0,15-4.66l.72-1.55a11.09,11.09,0,0,0-5.87-14.79L160.6,434a10.64,10.64,0,0,0-13.88,5.17"/><path class="cls-7" d="M169.42,420.09a2,2,0,0,1,0,.43C169.42,420.24,169.42,420.09,169.42,420.09Z"/><path class="cls-8" d="M167.73,456.35c-4-.25-16,3.28-17.12,1.83s.33-2.33-.32-4.22c-.4-1.15-1.72-1.62-2.06-2.8l-.34-1.23c-.4-1.46-1.78-7.23-3.16-13.05-.61-2.57-.08-4.48-.6-6.7-.67-2.82-2.55-2.92-2.55-6.65,1.9,5.19,27.14,2.47,27.83-3,0,1.63-.09,7.69-.19,13.73-.1,5.87-.23,11.73-.38,13.43,0,.42-.05.85-.07,1.28A45.88,45.88,0,0,1,167.73,456.35Z"/><path class="cls-8" d="M169.42,420.09l.15,1.39c.63,5.93-27.31,8.93-27.95,3l-.15-1.39"/><path class="cls-8" d="M148.36,426.21a14.62,14.62,0,0,1-5.18-1.15l-.2-.1a3.4,3.4,0,0,1-1.14-.94,2,2,0,0,1-.33-.71,1.43,1.43,0,0,1,0-.22h0a2.39,2.39,0,0,1,.86-1.94c1.16-1.13,3.38-2.09,6.07-2.81,8.14-2.18,20.58-2.18,21,1.75h0a2.55,2.55,0,0,1-1.08,2.15C165.08,425.06,155.19,426.73,148.36,426.21Z"/><path class="cls-9" d="M148.36,426.21a14.62,14.62,0,0,1-5.18-1.15l-.2-.1a15.55,15.55,0,0,1,5.85-2.61c6.55-1.75,15.89-2.09,19.51-.11C165.08,425.06,155.19,426.73,148.36,426.21Z"/><path class="cls-10" d="M152,450.88c-4.33,0-4.4-.74-4.43-1l-.27-.95-.08-.29c-.44-1.62-2-8.19-3.25-13.42l0-.09a.14.14,0,0,1,.12-.16h0a.15.15,0,0,1,.14.11v.06c.06.15.54.66,4.34.66,7.49,0,20.47-1.9,20.67-3.35,0,0,0,0,0,0h0a.15.15,0,0,1,.13-.14h0a.15.15,0,0,1,.14.13v.09c-.13,7.68-.26,12.33-.39,13.82,0,.43-.06.86-.07,1.31a.61.61,0,0,1-.18.43C167.55,449.58,157.57,450.88,152,450.88Z"/><path class="cls-11" d="M169.43,432.41v0m0,.07c-.1,6-.24,12-.39,13.81,0,.43-.06.87-.08,1.31.17,1.53-10.67,3.14-16.92,3.14-2.47,0-4.22-.26-4.29-.86-.13-.44-.24-.87-.35-1.27-.41-1.51-1.83-7.43-3.25-13.42.2.54,2,.77,4.47.77,7.21,0,20.58-1.85,20.81-3.48m-25.3,2.64,0,.07a.14.14,0,0,1,0-.07m25.3-3h0a.28.28,0,0,0-.27.28v.05c-.25,1.15-12.29,3.22-20.53,3.22-3.87,0-4.19-.53-4.21-.57a.33.33,0,0,0-.28-.23h0a.24.24,0,0,0-.24.27.5.5,0,0,0,0,.12c1.24,5.23,2.81,11.79,3.25,13.41l.08.3.28,1c0,.47.61,1.06,4.56,1.06,5.56,0,15.59-1.32,17-2.89a.71.71,0,0,0,.21-.56c0-.4,0-.83.07-1.26.13-1.49.26-6.14.39-13.81a.24.24,0,0,0,0-.12.28.28,0,0,0-.28-.26Z"/><path class="cls-10" d="M589.33,575.74a1.08,1.08,0,0,1-.8-.35,1,1,0,0,1-.28-.83l8-93.41c1.19-13.77,12-24.15,25.05-24.15H739.12c13.1,0,23.87,10.38,25.06,24.15l8.05,93.41a1,1,0,0,1-.28.83,1.08,1.08,0,0,1-.8.35Z"/><path class="cls-11" d="M739.12,458.08c12.53,0,22.84,10,24,23.17l8,93.41H589.33l8-93.41c1.14-13.21,11.44-23.17,24-23.17H739.12m0-2.17H621.35c-13.66,0-24.9,10.81-26.13,25.15l-8.06,93.41a2.19,2.19,0,0,0,2.17,2.36H771.15a2.17,2.17,0,0,0,1.6-.71,2.12,2.12,0,0,0,.56-1.65l-8-93.41c-1.24-14.34-12.47-25.15-26.14-25.15Z"/><path class="cls-12" d="M610.54,564.89a1.08,1.08,0,0,1-1.08-1.17l6.15-71.36c.62-7.2,6.26-12.63,13.12-12.63h103c6.86,0,12.5,5.43,13.12,12.63L751,563.72a1.08,1.08,0,0,1-1.08,1.17Z"/><path class="cls-13" d="M731.75,480.82c6.25,0,11.47,5,12,11.63l6.15,71.36H610.54l6.15-71.36c.57-6.59,5.79-11.63,12-11.63h103m0-2.17h-103c-7.43,0-13.53,5.85-14.2,13.62l-6.16,71.35a2.18,2.18,0,0,0,2.17,2.36h139.4a2.19,2.19,0,0,0,1.6-.7,2.15,2.15,0,0,0,.56-1.66L746,492.27c-.67-7.77-6.78-13.62-14.2-13.62Z"/><path class="cls-10" d="M598.68,866.66a9.27,9.27,0,0,1-9.21-9L582.75,566.9a1.13,1.13,0,0,1,.31-.78,1.11,1.11,0,0,1,.78-.33H776.67a1.07,1.07,0,0,1,.77.33,1.09,1.09,0,0,1,.31.78L771,857.66a9.26,9.26,0,0,1-9.21,9Z"/><path class="cls-11" d="M776.66,566.88,770,857.64a8.12,8.12,0,0,1-8.13,7.93H598.68a8.13,8.13,0,0,1-8.13-7.93l-6.71-290.76H776.66m0-2.17H583.84a2.17,2.17,0,0,0-1.55.65,2.2,2.2,0,0,0-.62,1.57l6.72,290.76a10.34,10.34,0,0,0,10.29,10H761.82a10.36,10.36,0,0,0,10.3-10l6.71-290.76a2.19,2.19,0,0,0-.61-1.57,2.21,2.21,0,0,0-1.56-.65Z"/><rect class="cls-10" x="571.92" y="557.2" width="216.65" height="26.58" rx="6.33"/><path class="cls-11" d="M782.23,558.29a5.25,5.25,0,0,1,5.25,5.25v13.91a5.25,5.25,0,0,1-5.25,5.25h-204a5.25,5.25,0,0,1-5.25-5.25V563.54a5.25,5.25,0,0,1,5.25-5.25h204m0-2.17h-204a7.43,7.43,0,0,0-7.42,7.42v13.91a7.43,7.43,0,0,0,7.42,7.42h204a7.43,7.43,0,0,0,7.42-7.42V563.54a7.43,7.43,0,0,0-7.42-7.42Z"/><path class="cls-10" d="M773.77,559.37a1.08,1.08,0,0,1-1.08-1.08V539.51a4.27,4.27,0,0,1,8.54,0v18.78a1.08,1.08,0,0,1-1.09,1.08Z"/><path class="cls-11" d="M777,536.33a3.18,3.18,0,0,1,3.18,3.18v18.78h-6.37V539.51a3.18,3.18,0,0,1,3.19-3.18m0-2.17a5.36,5.36,0,0,0-5.36,5.35v18.78a2.17,2.17,0,0,0,2.17,2.17h6.37a2.17,2.17,0,0,0,2.17-2.17V539.51a5.36,5.36,0,0,0-5.35-5.35Z"/><path class="cls-10" d="M580.33,559.37a1.08,1.08,0,0,1-1.08-1.08V539.51a4.27,4.27,0,0,1,8.54,0v18.78a1.08,1.08,0,0,1-1.09,1.08Z"/><path class="cls-11" d="M583.52,536.33a3.18,3.18,0,0,1,3.18,3.18v18.78h-6.36V539.51a3.18,3.18,0,0,1,3.18-3.18m0-2.17a5.36,5.36,0,0,0-5.35,5.35v18.78a2.17,2.17,0,0,0,2.17,2.17h6.36a2.17,2.17,0,0,0,2.17-2.17V539.51a5.36,5.36,0,0,0-5.35-5.35Z"/><path class="cls-14" d="M647.12,693.5a15.64,15.64,0,0,0-1.87,6.45,11.21,11.21,0,0,0,.1,1.66l-13-22.36a5.9,5.9,0,0,1-.72-2.71,6.28,6.28,0,0,1,.72-2.8l6.24-10.92-7-4,22.67-.42,11,19.86-7.07-4Zm10-63a10.14,10.14,0,0,1,9.15-5.31c4.26,0,7.59,2,10,6l3.54,5.93L667.5,658.35,647.64,646.8Zm1.45,81a10.88,10.88,0,0,1-10.82-10.82,14.6,14.6,0,0,1,1.77-6.24l3.33-5.93h24.65v23Zm19.76-81.64a12.78,12.78,0,0,0-6.13-5.62h25.58a5.58,5.58,0,0,1,5.1,2.71l6.34,10.81,6.86-4.06-11,19.77-22.57-.32,7-3.95Zm39.42,58.86a12.59,12.59,0,0,0,7.9-2.49l-12.9,22.46a5.75,5.75,0,0,1-5.09,2.81H695.48v8l-11.65-19.45,11.65-19.45v8.11Zm10-18.72a10.69,10.69,0,0,1,1.46,5.31,11.55,11.55,0,0,1-5.72,9.56,13,13,0,0,1-5.93,1.36h-6.87L698.4,665l19.86-11.34Z"/><rect class="cls-14" x="628.14" y="733.46" width="104.53" height="21.51" rx="7.15"/><path class="cls-15" d="M824,575.74a1.1,1.1,0,0,1-1.09-1.18L831,481.15c1.19-13.77,12-24.15,25-24.15H973.79c13.1,0,23.87,10.38,25.06,24.15l8,93.41a1,1,0,0,1-.28.83,1.1,1.1,0,0,1-.8.35Z"/><path class="cls-16" d="M973.79,458.08c12.53,0,22.84,10,24,23.17l8.05,93.41H824l8-93.41c1.14-13.21,11.44-23.17,24-23.17H973.79m0-2.17H856c-13.66,0-24.9,10.81-26.13,25.15l-8.06,93.41a2.19,2.19,0,0,0,2.17,2.36h181.82a2.18,2.18,0,0,0,2.16-2.36l-8.05-93.41c-1.24-14.34-12.47-25.15-26.14-25.15Z"/><path class="cls-17" d="M845.21,564.89a1,1,0,0,1-.8-.35,1.08,1.08,0,0,1-.29-.82l6.16-71.36c.62-7.2,6.26-12.63,13.12-12.63h103c6.86,0,12.5,5.43,13.12,12.63l6.15,71.36a1.08,1.08,0,0,1-1.08,1.17Z"/><path class="cls-18" d="M966.42,480.82c6.25,0,11.47,5,12,11.63l6.15,71.36H845.21l6.15-71.36c.57-6.59,5.79-11.63,12-11.63h103m0-2.17h-103c-7.43,0-13.53,5.85-14.2,13.62L843,563.62a2.18,2.18,0,0,0,2.17,2.36h139.4a2.16,2.16,0,0,0,2.16-2.36l-6.15-71.35c-.67-7.77-6.78-13.62-14.2-13.62Z"/><path class="cls-15" d="M833.35,866.66a9.26,9.26,0,0,1-9.21-9L817.42,566.9a1.13,1.13,0,0,1,.31-.78,1.11,1.11,0,0,1,.78-.33h192.82a1.07,1.07,0,0,1,.78.33,1.13,1.13,0,0,1,.31.78l-6.72,290.76a9.26,9.26,0,0,1-9.21,9Z"/><path class="cls-16" d="M1011.33,566.88l-6.71,290.76a8.12,8.12,0,0,1-8.13,7.93H833.35a8.13,8.13,0,0,1-8.13-7.93l-6.71-290.76h192.82m0-2.17H818.51a2.17,2.17,0,0,0-1.55.65,2.2,2.2,0,0,0-.62,1.57l6.71,290.76a10.36,10.36,0,0,0,10.3,10H996.49a10.36,10.36,0,0,0,10.3-10l6.71-290.76a2.19,2.19,0,0,0-.61-1.57,2.21,2.21,0,0,0-1.56-.65Z"/><rect class="cls-15" x="806.58" y="557.2" width="216.65" height="26.58" rx="6.33"/><path class="cls-16" d="M1016.9,558.29a5.25,5.25,0,0,1,5.25,5.25v13.91a5.25,5.25,0,0,1-5.25,5.25h-204a5.25,5.25,0,0,1-5.25-5.25V563.54a5.25,5.25,0,0,1,5.25-5.25h204m0-2.17h-204a7.43,7.43,0,0,0-7.42,7.42v13.91a7.43,7.43,0,0,0,7.42,7.42h204a7.43,7.43,0,0,0,7.42-7.42V563.54a7.43,7.43,0,0,0-7.42-7.42Z"/><path class="cls-15" d="M1008.44,559.37a1.08,1.08,0,0,1-1.08-1.08V539.51a4.27,4.27,0,0,1,8.54,0v18.78a1.08,1.08,0,0,1-1.09,1.08Z"/><path class="cls-16" d="M1011.63,536.33a3.18,3.18,0,0,1,3.18,3.18v18.78h-6.37V539.51a3.18,3.18,0,0,1,3.19-3.18m0-2.17a5.36,5.36,0,0,0-5.36,5.35v18.78a2.17,2.17,0,0,0,2.17,2.17h6.37a2.17,2.17,0,0,0,2.17-2.17V539.51a5.36,5.36,0,0,0-5.35-5.35Z"/><path class="cls-15" d="M815,559.37a1.08,1.08,0,0,1-1.08-1.08V539.51a4.27,4.27,0,1,1,8.54,0v18.78a1.08,1.08,0,0,1-1.09,1.08Z"/><path class="cls-16" d="M818.19,536.33a3.18,3.18,0,0,1,3.18,3.18v18.78H815V539.51a3.18,3.18,0,0,1,3.19-3.18m0-2.17a5.36,5.36,0,0,0-5.35,5.35v18.78a2.17,2.17,0,0,0,2.16,2.17h6.37a2.17,2.17,0,0,0,2.17-2.17V539.51a5.36,5.36,0,0,0-5.35-5.35Z"/><path class="cls-14" d="M881.62,693.5a15.61,15.61,0,0,0-1.86,6.45,11.21,11.21,0,0,0,.1,1.66l-13-22.36a5.79,5.79,0,0,1-.73-2.71,6.16,6.16,0,0,1,.73-2.8l6.24-10.92-7-4,22.67-.42,11,19.86-7.07-4Zm10-63a10.15,10.15,0,0,1,9.15-5.31c4.27,0,7.6,2,10,6l3.53,5.93L902,658.35,882.15,646.8Zm1.45,81a10.88,10.88,0,0,1-10.81-10.82,14.6,14.6,0,0,1,1.77-6.24l3.32-5.93H912v23Zm19.77-81.64a12.75,12.75,0,0,0-6.14-5.62h25.58a5.57,5.57,0,0,1,5.1,2.71l6.35,10.81,6.86-4.06-11,19.77L917,653.14l7-3.95Zm39.42,58.86a12.61,12.61,0,0,0,7.9-2.49l-12.9,22.46a5.76,5.76,0,0,1-5.09,2.81H930v8l-11.65-19.45L930,680.6v8.11Zm10-18.72a10.79,10.79,0,0,1,1.46,5.31,11.57,11.57,0,0,1-5.72,9.56,13.07,13.07,0,0,1-5.93,1.36h-6.87L932.9,665l19.87-11.34Z"/><rect class="cls-14" x="862.64" y="733.46" width="104.53" height="21.51" rx="7.15"/><polyline class="cls-19" points="1058.54 873.31 536.61 873.31 536.61 863.85 536.61 855.22 1058.54 855.22"/><line class="cls-20" x1="536.61" y1="855.22" x2="1058.54" y2="855.22"/><line class="cls-20" x1="1058.54" y1="873.31" x2="536.61" y2="873.31"/><path class="cls-21" d="M496.81,506.43l-12.07-4a6.91,6.91,0,0,1-4.39-8.71l1.77-5.36,3.05-5.11,9.41-32.64c.33-1,2.17-2,2.85-3.88,1.84-4.95,6.31-10.73,8.95-9.85l12.07,4c1.53.5,1.61,4.82.37,7.06-.67,1.23-1.15,3.21,0,3.94,1.57,1,1.4,5.64.93,7.05l-4.12,8.31-2.2,10.84-7.91,24A6.89,6.89,0,0,1,496.81,506.43Z"/><rect class="cls-21" x="507.77" y="436.98" width="10.08" height="1.99" transform="translate(163.11 -138.66) rotate(18.27)"/><path class="cls-22" d="M509.89,429.73h8.82a1.75,1.75,0,0,1,1.75,1.75v5.74a0,0,0,0,1,0,0H508.14a0,0,0,0,1,0,0v-5.74a1.75,1.75,0,0,1,1.75-1.75Z" transform="translate(161.78 -139.36) rotate(18.27)"/><path class="cls-23" d="M495.4,449.5c.27-.81,24.92,7.32,24.65,8.14"/><path class="cls-24" d="M480.89,492.13c10.5,3.46,13.52-1.58,27,2.85"/><path class="cls-24" d="M483.7,485.73c10.51,3.47,12.89-1.78,26.33,2.65"/><path class="cls-24" d="M486.33,479.27c10.5,3.46,12.44-1.92,25.88,2.52"/><rect class="cls-22" x="506.13" y="435.81" width="14.29" height="1.54" rx="0.69" transform="translate(162.7 -138.88) rotate(18.27)"/><path class="cls-22" d="M488.85,470A182.16,182.16,0,0,0,512.93,478a.48.48,0,0,0,.6-.38l2.1-10.34,2.93-5a.48.48,0,0,0-.21-.67,120.93,120.93,0,0,0-24.69-8.09l-5.2,15.73A.69.69,0,0,0,488.85,470Z"/><path class="cls-5" d="M495.72,453.06a2.39,2.39,0,0,1-.21,3.28L493,458.71c-1,.93-5.31,5.38-6.19,4.32l-.24-.29c-.88-1.05,2-7.17,3.14-8l2.79-2.07a2.39,2.39,0,0,1,3.26.38"/><path class="cls-5" d="M158.35,440.07a3,3,0,0,0,2.9,2.86l4.33.08c1.69,0,9.36.59,9.3-1.11v-.47c-.06-1.7-7.83-5-9.52-4.8L161,437a3,3,0,0,0-2.69,3.06"/><path class="cls-25" d="M369.48,826.11l-2.62,36.69H350.91l1.33-34.44a2.07,2.07,0,0,1,1.69-1.93l13.29-2.35A1.92,1.92,0,0,1,369.48,826.11Z"/><path class="cls-25" d="M404.7,872.47H350.61l.3-9.67h15.95S404.9,866.09,404.7,872.47Z"/><path class="cls-26" d="M351.08,857.68l-.46,14.79h54.86c.41-13.05-38.19-14.79-38.19-14.79Z"/><path class="cls-27" d="M380,841.57l-18.05.18-18.06.18L344,705.21l-28.59-141.4h52.45c2,0,3.64.82,3.92,2.77l14.48,130Z"/><path class="cls-28" d="M278.37,833.49l9.78,1.31a3,3,0,0,1,2.57,3.5l-3.51,23.48-16,0,2.9-25A3.87,3.87,0,0,1,278.37,833.49Z"/><path class="cls-28" d="M324.35,871.38l-54.15.09,1.05-9.66,16,0S325.05,865,324.35,871.38Z"/><path class="cls-29" d="M271.81,856.69l-1.6,14.78,54.93-.09c1.41-13-37.09-14.72-37.09-14.72Z"/><path class="cls-30" d="M302.13,842.8l-17.95-.87-17.94-.88,16-136.45-4.8-136.81c0-1.22,1.05-3.94,2.28-4h54L323.58,705.68Z"/><g class="cls-31"><path class="cls-32" d="M1058.54,855.22h0v-1.54h-51.66l6.21-268.81h3.81a7.43,7.43,0,0,0,7.42-7.42V563.54a7.43,7.43,0,0,0-7.34-7.42V539.51a5.36,5.36,0,0,0-10.71,0v15.14l-6.34-73.59c-1.24-14.34-12.47-25.15-26.14-25.15H856c-13.66,0-24.9,10.81-26.13,25.15l-6.35,73.59V539.51a5.35,5.35,0,1,0-10.7,0v16.61a7.43,7.43,0,0,0-7.34,7.42v13.91a7.43,7.43,0,0,0,7.42,7.42h3.83L823,853.68H772.21l6.21-268.81h3.81a7.43,7.43,0,0,0,7.42-7.42V563.54a7.43,7.43,0,0,0-7.34-7.42V539.51a5.36,5.36,0,0,0-10.71,0v15.14l-6.34-73.59c-1.24-14.34-12.47-25.15-26.14-25.15H621.35c-13.66,0-24.9,10.81-26.13,25.15l-6.35,73.59V539.51a5.35,5.35,0,0,0-10.7,0v16.61a7.43,7.43,0,0,0-7.34,7.42v13.91a7.43,7.43,0,0,0,7.42,7.42h3.83l6.21,268.81H536.61v1.54h0v18.09h0v1.55h521.93v-1.55h0Zm-53.83-1.54h0l6.21-268.81h0ZM818.92,584.87h0l6.21,268.81h0ZM770,853.68h0l6.21-268.81h0ZM584.25,584.87h0l6.21,268.81h0Z"/><path class="cls-33" d="M519.75,431.05l-8.38-2.76a2,2,0,0,0-1.53.11,2,2,0,0,0-1,1.16l-1.33,4h0a1,1,0,0,0-1.2.6l0,.15a1,1,0,0,0,.61,1.2l1.08.36-.36,1.11-1.09-.36c-3-1-7.56,5.38-9.28,10a7.26,7.26,0,0,1-1.74,2.42,4.54,4.54,0,0,0-1.11,1.47l-.48,1.66a2.4,2.4,0,0,0-1.39.47l-2.79,2.07c-.86.64-2.82,4.51-3.22,6.68L423.81,472l-27.13-5.38,1.62-4.3-31.81-11.65a14.93,14.93,0,0,0-11.1-4l-15.88.72c-.15-3.7-.31-7.4-.46-11.09a35.25,35.25,0,0,0,7.66.36l5.67-.43c12.79-1,9.93-11.21,8.81-24l-1.05-12c0-.39-.08-.77-.13-1.15a12,12,0,0,0,7.47-9.34,12.31,12.31,0,0,0-10.17-14l-5.64-.93a22.15,22.15,0,0,0-18.23-7.4L315,368.82A21.64,21.64,0,0,0,295,392.37l1.08,12.41a10.21,10.21,0,0,0-2.11,7.51,12.07,12.07,0,0,0,6.89,9.8,22.36,22.36,0,0,0,10.45,7.77c-.56,6.29-1.17,12.58-1.78,18.87l-22.36,1c-.16,0-.32.05-.48.07a11.39,11.39,0,0,0-5,1.39l-33.58,18.85c-2.15,1.21-3.09,3.6-2.1,5.35l.33.58-18.71,10.9L182,448.17a11.21,11.21,0,0,0-6.6-7.92l-5.74-2.43c0-1.57.07-3.34.1-5.32a.24.24,0,0,0,0-.12.28.28,0,0,0-.28-.26h0c0-2.95.09-6.26.13-9.62a2,2,0,0,0,.18-1l-.15-1.39h0a2.45,2.45,0,0,0-1.17-1.72c-2.74-1.87-11.63-2.39-20-.15-2.91.78-5,1.76-6.14,2.85a2.51,2.51,0,0,0-.9,2.06l.15,1.39a.31.31,0,0,0,0,.08,6.19,6.19,0,0,0,1.28,3.12,7,7,0,0,1,1.21,2.51,12.79,12.79,0,0,1,.26,3.06c0,.54,0,1.1.05,1.67a.28.28,0,0,0-.17-.07h0a.24.24,0,0,0-.24.27.5.5,0,0,0,0,.12c.6,2.54,1.28,5.39,1.87,7.83a11.08,11.08,0,0,0,1.58,6.3c.05.19.1.37.16.56a.68.68,0,0,0,.42.54c.06.23.12.46.19.7a3.59,3.59,0,0,0,1.08,1.51,3.35,3.35,0,0,1,1,1.3,3.44,3.44,0,0,1,0,2.06,2.32,2.32,0,0,0,.33,2.2c.21.28.73.41,1.54.41a48.29,48.29,0,0,0,7.06-1l6.44,3.58a11.36,11.36,0,0,0,2.72,1.06l50.45,50.48a12.87,12.87,0,0,0,8.5,2.8,15.4,15.4,0,0,0,10.9-.8h0l24-11,2.35,4.16,10.84-6.08,4.78,62h-.38c-1.23,0-2.24,2.76-2.28,4l4.8,136.81-16,136.45,7.38.36-1.78,15.28h0l-.41,3.83-.15,1.29h0l-1.05,9.66h0l23.34,0,30.8,0h.79c1.41-13-37.09-14.72-37.09-14.72H288l2.15-14.44,12,.58,21.45-137.12,5.32-74.95L344,705.21l-.09,136.72,7.85-.08-.61,15.83h0l-.12,3.83,0,1.29-.3,9.67h54.87c.41-13.05-38.19-14.79-38.19-14.79h-.07l1.15-16,11.61-.11,6.24-145L371.79,567h.09l1.7-69.47,5.83,2.37c2.29.84,4.73,0,5.45-2l.42-1.09,26.12,1.61,74.23-17.75-.71,2.45-3.05,5.14-1.77,5.35a7.15,7.15,0,0,0,4.56,9.05l12.07,4a7.3,7.3,0,0,0,2.25.36,7.18,7.18,0,0,0,6.8-4.92l7.91-24,2.2-10.82,0-.09,2.85-4.9a.72.72,0,0,0,.07-.59,1,1,0,0,0-.1-.18L520,459a7.21,7.21,0,0,0,.24-1.23.18.18,0,0,0,0-.07.2.2,0,0,0,0-.21c.19-2,0-5-1.31-5.85-1-.65-.48-2.55.09-3.59a8.71,8.71,0,0,0,.52-6.28,1.85,1.85,0,0,0-1.05-1.17l-.9-.29.37-1.11,1.08.36a1,1,0,0,0,.3,0,.94.94,0,0,0,.43-.1,1,1,0,0,0,.47-.55l.05-.15a1,1,0,0,0-.6-1.2h0l1.33-4a2,2,0,0,0-1.27-2.54Zm-350.32,1.43c0,.26,0,.52,0,.78,0-.26,0-.52,0-.78Zm-.1,5.22c0-.6,0-1.22,0-1.86,0,.64,0,1.26,0,1.86Zm.08-4.13c0,.31,0,.62,0,.93C169.4,434.19,169.41,433.88,169.41,433.57Zm0,1.11c0,.2,0,.39,0,.58C169.38,435.07,169.39,434.88,169.39,434.68Zm-25.12.67a.39.39,0,0,1-.08-.1A.39.39,0,0,0,144.27,435.35Zm-.12-.16c.16.69.32,1.38.48,2.05-.16-.67-.32-1.36-.48-2.05Zm1.31,5.51c.12.52.25,1,.36,1.53h0C145.71,441.73,145.58,441.23,145.46,440.7Zm-.79-3.32c.22.94.44,1.85.65,2.74C145.11,439.23,144.89,438.32,144.67,437.38Z"/></g><rect class="cls-34" width="1200" height="1200"/></g></g></svg>